<svg width="31" height="20" viewBox="0 0 31 20" fill="none" xmlns="http://www.w3.org/2000/svg">
<path d="M2.26841 0C1.82248 0 1.41321 0.136294 1.06324 0.360584L14.4839 11.9116C15.0984 12.441 15.9264 12.441 16.5395 11.9116L29.9366 0.360584C29.5866 0.136294 29.1774 0 28.7314 0H2.26807H2.26841ZM0.130008 1.55044C0.0490514 1.78788 0 2.04115 0 2.30753V17.6925C0 18.1558 0.13686 18.5816 0.366287 18.9424L9.97139 10.0363L0.130008 1.55044ZM30.87 1.55044L21.0522 10.0245L30.6337 18.943C30.8631 18.5821 31 18.1563 31 17.693V2.30808C31 2.04167 30.951 1.7884 30.87 1.55099V1.55044ZM19.8951 11.0335L17.5086 13.0889C16.3543 14.085 14.6579 14.0837 13.5037 13.0889L11.129 11.0456L1.59481 19.8919C1.80815 19.959 2.03256 20 2.26831 20H28.7316C28.9671 20 29.1918 19.959 29.4051 19.8919L19.8952 11.0332L19.8951 11.0335Z" fill="white"/>
</svg>
