<svg width="21" height="20" viewBox="0 0 21 20" fill="none" xmlns="http://www.w3.org/2000/svg">
<path d="M19.7997 16.806C18.6664 19.5227 16.0095 19.9989 15.1413 19.9989C14.8864 19.9989 10.9156 20.2095 5.2082 14.7952C0.614941 10.4381 0.0536845 5.75275 0.00486227 4.86244C-0.0427374 3.99539 0.205498 1.82018 3.19779 0.204085C3.56852 0.00375925 4.3036 -0.0849264 4.49341 0.105008C4.5776 0.1892 7.08924 4.32197 7.15517 4.45891C7.22122 4.59567 7.25425 4.73025 7.25425 4.86235C7.25425 5.05105 7.11982 5.28719 6.85065 5.57031C6.58164 5.85344 6.2892 6.11315 5.97292 6.34897C5.65662 6.58496 5.36403 6.83505 5.09488 7.0994C4.82587 7.36345 4.69144 7.58084 4.69144 7.7506C4.70974 8.19139 5.07085 9.77029 7.82253 12.1879C10.5747 14.6062 11.9002 15.2875 12.028 15.3346C12.1556 15.3817 12.2616 15.405 12.3465 15.405C12.5165 15.405 12.7336 15.2707 12.998 15.0017C13.262 14.7325 14.1505 13.5149 14.4337 13.2458C14.7169 12.9771 14.953 12.8425 15.1419 12.8425C15.274 12.8425 15.4084 12.8754 15.5451 12.9414C15.6821 13.0075 19.8201 15.4289 19.8994 15.5098C20.114 15.7301 19.9624 16.417 19.8002 16.8059" fill="white"/>
</svg>
